<mxfile host="app.diagrams.net" modified="2023-11-12T09:53:19.298Z" agent="Mozilla/5.0 (Windows NT 10.0; Win64; x64) AppleWebKit/537.36 (KHTML, like Gecko) Chrome/119.0.0.0 Safari/537.36" etag="TVD35SA3u4K7DGiipda5" version="22.1.0" type="device">
  <diagram name="Page-1" id="kzlHGewhRrwpKd-prfzd">
    <mxGraphModel dx="3093" dy="862" grid="1" gridSize="10" guides="1" tooltips="1" connect="1" arrows="1" fold="1" page="1" pageScale="1" pageWidth="827" pageHeight="1169" math="0" shadow="0">
      <root>
        <mxCell id="0" />
        <mxCell id="1" parent="0" />
        <mxCell id="eA4rmZndixzdD3r9hMOP-1" value="&lt;font style=&quot;font-size: 18px;&quot;&gt;Деятельность оптового склада&lt;/font&gt;" style="rounded=0;whiteSpace=wrap;html=1;" parent="1" vertex="1">
          <mxGeometry x="240" y="320" width="360" height="210" as="geometry" />
        </mxCell>
        <mxCell id="eA4rmZndixzdD3r9hMOP-2" value="" style="endArrow=classic;html=1;rounded=0;entryX=0;entryY=0.5;entryDx=0;entryDy=0;" parent="1" edge="1">
          <mxGeometry width="50" height="50" relative="1" as="geometry">
            <mxPoint y="380" as="sourcePoint" />
            <mxPoint x="240" y="380" as="targetPoint" />
          </mxGeometry>
        </mxCell>
        <mxCell id="eA4rmZndixzdD3r9hMOP-3" value="&lt;font style=&quot;font-size: 14px;&quot;&gt;Клиент&lt;/font&gt;" style="edgeLabel;html=1;align=center;verticalAlign=middle;resizable=0;points=[];" parent="eA4rmZndixzdD3r9hMOP-2" vertex="1" connectable="0">
          <mxGeometry x="0.4583" y="3" relative="1" as="geometry">
            <mxPoint x="-145" y="-12" as="offset" />
          </mxGeometry>
        </mxCell>
        <mxCell id="eA4rmZndixzdD3r9hMOP-4" value="" style="endArrow=classic;html=1;rounded=0;exitX=1;exitY=0.5;exitDx=0;exitDy=0;" parent="1" edge="1">
          <mxGeometry width="50" height="50" relative="1" as="geometry">
            <mxPoint x="600" y="380" as="sourcePoint" />
            <mxPoint x="800" y="380" as="targetPoint" />
          </mxGeometry>
        </mxCell>
        <mxCell id="eA4rmZndixzdD3r9hMOP-6" value="" style="endArrow=classic;html=1;rounded=0;exitX=1.008;exitY=0.692;exitDx=0;exitDy=0;exitPerimeter=0;" parent="1" edge="1">
          <mxGeometry x="-0.2894" y="20" width="50" height="50" relative="1" as="geometry">
            <mxPoint x="600.0000000000001" y="450.31999999999994" as="sourcePoint" />
            <mxPoint x="797.12" y="450" as="targetPoint" />
            <mxPoint as="offset" />
          </mxGeometry>
        </mxCell>
        <mxCell id="eA4rmZndixzdD3r9hMOP-8" value="" style="endArrow=none;html=1;rounded=0;entryX=0.11;entryY=-0.018;entryDx=0;entryDy=0;entryPerimeter=0;startArrow=classic;startFill=1;endFill=0;" parent="1" edge="1">
          <mxGeometry width="50" height="50" relative="1" as="geometry">
            <mxPoint x="350" y="530" as="sourcePoint" />
            <mxPoint x="350" y="686" as="targetPoint" />
          </mxGeometry>
        </mxCell>
        <mxCell id="eA4rmZndixzdD3r9hMOP-9" value="" style="endArrow=classic;html=1;rounded=0;entryX=0.11;entryY=-0.018;entryDx=0;entryDy=0;entryPerimeter=0;" parent="1" edge="1">
          <mxGeometry width="50" height="50" relative="1" as="geometry">
            <mxPoint x="580" y="164" as="sourcePoint" />
            <mxPoint x="580" y="320" as="targetPoint" />
          </mxGeometry>
        </mxCell>
        <mxCell id="eA4rmZndixzdD3r9hMOP-12" value="" style="endArrow=none;html=1;rounded=0;entryX=0.11;entryY=-0.018;entryDx=0;entryDy=0;entryPerimeter=0;startArrow=classic;startFill=1;endFill=0;" parent="1" edge="1">
          <mxGeometry width="50" height="50" relative="1" as="geometry">
            <mxPoint x="580" y="530" as="sourcePoint" />
            <mxPoint x="580" y="686" as="targetPoint" />
          </mxGeometry>
        </mxCell>
        <mxCell id="eA4rmZndixzdD3r9hMOP-13" value="" style="endArrow=classic;html=1;rounded=0;entryX=0.11;entryY=-0.018;entryDx=0;entryDy=0;entryPerimeter=0;" parent="1" edge="1">
          <mxGeometry width="50" height="50" relative="1" as="geometry">
            <mxPoint x="350" y="164" as="sourcePoint" />
            <mxPoint x="350" y="320" as="targetPoint" />
          </mxGeometry>
        </mxCell>
        <mxCell id="eA4rmZndixzdD3r9hMOP-14" value="&lt;font style=&quot;font-size: 14px;&quot;&gt;Клиент с товаром&lt;/font&gt;" style="text;html=1;align=center;verticalAlign=middle;resizable=0;points=[];autosize=1;strokeColor=none;fillColor=none;" parent="1" vertex="1">
          <mxGeometry x="650" y="350" width="140" height="30" as="geometry" />
        </mxCell>
        <mxCell id="eA4rmZndixzdD3r9hMOP-15" value="&lt;font style=&quot;font-size: 14px;&quot;&gt;Руководитель &lt;br&gt;предприятия&lt;/font&gt;&lt;span style=&quot;font-family: -webkit-standard; font-size: medium; text-align: start;&quot;&gt;&lt;/span&gt;" style="text;html=1;align=center;verticalAlign=middle;resizable=0;points=[];autosize=1;strokeColor=none;fillColor=none;" parent="1" vertex="1">
          <mxGeometry x="240" y="570" width="110" height="50" as="geometry" />
        </mxCell>
        <mxCell id="eA4rmZndixzdD3r9hMOP-16" value="&lt;font style=&quot;font-size: 14px;&quot;&gt;Складской &lt;br&gt;персонал&lt;/font&gt;&lt;span style=&quot;font-family: -webkit-standard; font-size: medium; text-align: start;&quot;&gt;&lt;/span&gt;" style="text;html=1;align=center;verticalAlign=middle;resizable=0;points=[];autosize=1;strokeColor=none;fillColor=none;" parent="1" vertex="1">
          <mxGeometry x="370" y="560" width="100" height="50" as="geometry" />
        </mxCell>
        <mxCell id="eA4rmZndixzdD3r9hMOP-17" value="&lt;font style=&quot;font-size: 14px;&quot;&gt;Работники&amp;nbsp;&lt;br&gt;отдела &lt;br&gt;продаж&lt;/font&gt;&lt;span style=&quot;font-family: -webkit-standard; font-size: medium; text-align: start;&quot;&gt;&lt;/span&gt;" style="text;html=1;align=center;verticalAlign=middle;resizable=0;points=[];autosize=1;strokeColor=none;fillColor=none;" parent="1" vertex="1">
          <mxGeometry x="490" y="560" width="100" height="60" as="geometry" />
        </mxCell>
        <mxCell id="eA4rmZndixzdD3r9hMOP-19" value="&lt;font style=&quot;font-size: 14px;&quot;&gt;Устав и &lt;br&gt;положения &lt;br&gt;об организации &lt;br&gt;работы склада&lt;/font&gt;" style="text;html=1;align=center;verticalAlign=middle;resizable=0;points=[];autosize=1;strokeColor=none;fillColor=none;" parent="1" vertex="1">
          <mxGeometry x="220" y="188" width="130" height="80" as="geometry" />
        </mxCell>
        <mxCell id="eA4rmZndixzdD3r9hMOP-20" value="&lt;span style=&quot;border: 0px solid rgb(217, 217, 227); box-sizing: border-box; font-family: Söhne, ui-sans-serif, system-ui, -apple-system, &amp;quot;Segoe UI&amp;quot;, Roboto, Ubuntu, Cantarell, &amp;quot;Noto Sans&amp;quot;, sans-serif, &amp;quot;Helvetica Neue&amp;quot;, Arial, &amp;quot;Apple Color Emoji&amp;quot;, &amp;quot;Segoe UI Emoji&amp;quot;, &amp;quot;Segoe UI Symbol&amp;quot;, &amp;quot;Noto Color Emoji&amp;quot;; font-variant-ligatures: normal; orphans: 2; text-align: left; widows: 2; text-decoration-thickness: initial; text-decoration-style: initial; text-decoration-color: initial; background-color: rgb(255, 255, 255);&quot;&gt;&lt;font style=&quot;font-size: 14px;&quot;&gt;Журнал &lt;br&gt;приема-передачи &lt;br&gt;товаров&lt;/font&gt;&lt;/span&gt;" style="text;html=1;align=center;verticalAlign=middle;resizable=0;points=[];autosize=1;strokeColor=none;fillColor=none;" parent="1" vertex="1">
          <mxGeometry x="440" y="188" width="150" height="60" as="geometry" />
        </mxCell>
        <mxCell id="eA4rmZndixzdD3r9hMOP-21" value="" style="endArrow=classic;html=1;rounded=0;entryX=0;entryY=0.5;entryDx=0;entryDy=0;" parent="1" edge="1">
          <mxGeometry width="50" height="50" relative="1" as="geometry">
            <mxPoint y="450" as="sourcePoint" />
            <mxPoint x="240" y="450" as="targetPoint" />
          </mxGeometry>
        </mxCell>
        <mxCell id="eA4rmZndixzdD3r9hMOP-22" value="&lt;font style=&quot;font-size: 14px;&quot;&gt;Партии товаров от поставщиков&amp;nbsp;&lt;/font&gt;&lt;span style=&quot;font-family: -webkit-standard; font-size: medium; text-align: start;&quot;&gt;&lt;/span&gt;" style="edgeLabel;html=1;align=center;verticalAlign=middle;resizable=0;points=[];" parent="eA4rmZndixzdD3r9hMOP-21" vertex="1" connectable="0">
          <mxGeometry x="0.4583" y="3" relative="1" as="geometry">
            <mxPoint x="-55" y="-17" as="offset" />
          </mxGeometry>
        </mxCell>
        <mxCell id="eA4rmZndixzdD3r9hMOP-23" value="&lt;font style=&quot;font-size: 14px;&quot;&gt;Работа с поставщиками&lt;/font&gt;" style="text;html=1;align=center;verticalAlign=middle;resizable=0;points=[];autosize=1;strokeColor=none;fillColor=none;" parent="1" vertex="1">
          <mxGeometry x="610" y="420" width="180" height="30" as="geometry" />
        </mxCell>
        <mxCell id="81oY48mlSqh3CUo3g5y4-2" value="" style="endArrow=none;html=1;rounded=0;entryX=0.11;entryY=-0.018;entryDx=0;entryDy=0;entryPerimeter=0;startArrow=classic;startFill=1;endFill=0;" parent="1" edge="1">
          <mxGeometry width="50" height="50" relative="1" as="geometry">
            <mxPoint x="470" y="530" as="sourcePoint" />
            <mxPoint x="470" y="686" as="targetPoint" />
          </mxGeometry>
        </mxCell>
      </root>
    </mxGraphModel>
  </diagram>
</mxfile>
